<?xml version="1.0" encoding="utf-8"?>
<svg version="1.1" xmlns="http://www.w3.org/2000/svg" viewBox="0 0 30 30">
  <defs>
    <linearGradient id="sky" x1="0%" y1="0%" x2="100%" y2="100%">
      <stop offset="0%" style="stop-color:#4A90D9"/>
      <stop offset="100%" style="stop-color:#1B5FAA"/>
    </linearGradient>
    <style>
      .cloud { fill: #FFFFFF; }
      .sun { fill: #FFD93D; }
      .breathe {
        animation: breathe 2.5s ease-in-out infinite;
      }
      @keyframes breathe {
        0%, 100% { opacity: 0.85; }
        50% { opacity: 1; }
      }
    </style>
  </defs>
  <rect rx="4" ry="4" width="30" height="30" fill="url(#sky)"/>
  <g class="breathe">
    <circle cx="21" cy="9" r="5" class="sun"/>
    <path class="cloud" d="M8,19.5c-2.2,0-4-1.8-4-4s1.8-4,4-4c0.4,0,0.8,0.1,1.2,0.2C10,10,12,8.5,14.5,8.5c3,0,5.5,2.5,5.5,5.5
      c0,0.2,0,0.4,0,0.6c1.1,0.6,1.8,1.8,1.8,3.1c0,2-1.6,3.6-3.6,3.6L8,21.3V19.5z"/>
  </g>
</svg>
